<svg width="13" height="13" viewBox="0 0 13 13" fill="none" xmlns="http://www.w3.org/2000/svg">
<path d="M9.07633 8.04717H8.53431L8.3422 7.86192C9.01458 7.07976 9.41938 6.06432 9.41938 4.95969C9.41938 2.49657 7.42281 0.5 4.95969 0.5C2.49657 0.5 0.5 2.49657 0.5 4.95969C0.5 7.42281 2.49657 9.41938 4.95969 9.41938C6.06432 9.41938 7.07976 9.01458 7.86192 8.3422L8.04717 8.53431V9.07633L11.4777 12.5L12.5 11.4777L9.07633 8.04717ZM4.95969 8.04717C3.25129 8.04717 1.87221 6.6681 1.87221 4.95969C1.87221 3.25129 3.25129 1.87221 4.95969 1.87221C6.6681 1.87221 8.04717 3.25129 8.04717 4.95969C8.04717 6.6681 6.6681 8.04717 4.95969 8.04717Z" fill="white"/>
</svg>
