<svg width="20" height="20" viewBox="0 0 20 20" fill="none" xmlns="http://www.w3.org/2000/svg">
<rect x="0.5" y="0.5" width="19" height="19" rx="9.5" stroke="#F7685B"/>
<path d="M9.64936 3.6387C9.80125 3.36203 10.1987 3.36203 10.3506 3.6387L12.0982 6.82197C12.1556 6.92662 12.2568 7.00013 12.3741 7.02244L15.9416 7.70078C16.2517 7.75973 16.3745 8.13777 16.1583 8.36773L13.6709 11.0134C13.5891 11.1004 13.5504 11.2194 13.5655 11.3378L14.0227 14.9403C14.0625 15.2534 13.7409 15.4871 13.4554 15.3525L10.1705 13.8044C10.0625 13.7535 9.93746 13.7535 9.82947 13.8044L6.5446 15.3525C6.25909 15.4871 5.93751 15.2534 5.97725 14.9403L6.43453 11.3378C6.44956 11.2194 6.41091 11.1004 6.32914 11.0134L3.84169 8.36773C3.6255 8.13777 3.74833 7.75973 4.0584 7.70078L7.62589 7.02244C7.74317 7.00013 7.84436 6.92662 7.90181 6.82197L9.64936 3.6387Z" fill="#F7685B"/>
</svg>
