<svg width="9" height="16" viewBox="0 0 9 16" fill="none" xmlns="http://www.w3.org/2000/svg">
<path d="M7.32312 3.63634V11.9999C7.32312 13.6072 6.02131 14.909 4.41404 14.909C2.80678 14.909 1.50497 13.6072 1.50497 11.9999V2.90908C1.50497 1.90544 2.31951 1.0909 3.32314 1.0909C4.32677 1.0909 5.14131 1.90544 5.14131 2.90908V10.5454C5.14131 10.9454 4.81404 11.2727 4.41404 11.2727C4.01404 11.2727 3.68677 10.9454 3.68677 10.5454V3.63634H2.59587V10.5454C2.59587 11.549 3.41041 12.3636 4.41404 12.3636C5.41767 12.3636 6.23221 11.549 6.23221 10.5454V2.90908C6.23221 1.30181 4.9304 0 3.32314 0C1.71587 0 0.414062 1.30181 0.414062 2.90908V11.9999C0.414062 14.2108 2.20314 15.9999 4.41404 15.9999C6.62494 15.9999 8.41402 14.2108 8.41402 11.9999V3.63634H7.32312Z" fill="#334D6E"/>
</svg>
