<svg width="16" height="16" viewBox="0 0 16 16" fill="none" xmlns="http://www.w3.org/2000/svg">
<rect width="16" height="16" rx="2" fill="#C4C4C4"/>
<path d="M11.8251 8.4875C11.8444 8.33125 11.8572 8.16875 11.8572 8C11.8572 7.83125 11.8444 7.66875 11.8187 7.5125L12.9051 6.6875C13.0015 6.6125 13.0273 6.475 12.9694 6.36875L11.9408 4.6375C11.8765 4.525 11.7415 4.4875 11.6258 4.525L10.3465 5.025C10.0765 4.825 9.79361 4.6625 9.47861 4.5375L9.28575 3.2125C9.26646 3.0875 9.15717 3 9.0286 3H6.9714C6.84283 3 6.73997 3.0875 6.72068 3.2125L6.52782 4.5375C6.21282 4.6625 5.92352 4.83125 5.65995 5.025L4.38063 4.525C4.26491 4.48125 4.12991 4.525 4.06562 4.6375L3.03703 6.36875C2.97274 6.48125 2.99845 6.6125 3.10131 6.6875L4.18777 7.5125C4.16205 7.66875 4.14277 7.8375 4.14277 8C4.14277 8.1625 4.15562 8.33125 4.18134 8.4875L3.09488 9.3125C2.99845 9.3875 2.97274 9.525 3.0306 9.63125L4.05919 11.3625C4.12348 11.475 4.25848 11.5125 4.3742 11.475L5.65352 10.975C5.92352 11.175 6.20639 11.3375 6.52139 11.4625L6.71426 12.7875C6.73997 12.9125 6.84283 13 6.9714 13H9.0286C9.15717 13 9.26646 12.9125 9.27932 12.7875L9.47218 11.4625C9.78719 11.3375 10.0765 11.1687 10.3401 10.975L11.6194 11.475C11.7351 11.5188 11.8701 11.475 11.9344 11.3625L12.963 9.63125C13.0273 9.51875 13.0015 9.3875 12.8987 9.3125L11.8251 8.4875ZM8 9.875C6.93926 9.875 6.07138 9.03125 6.07138 8C6.07138 6.96875 6.93926 6.125 8 6.125C9.06074 6.125 9.92862 6.96875 9.92862 8C9.92862 9.03125 9.06074 9.875 8 9.875Z" fill="#F5F6F8"/>
</svg>
