<svg width="20" height="20" viewBox="0 0 20 20" fill="none" xmlns="http://www.w3.org/2000/svg">
<circle cx="10" cy="10" r="9.5" stroke="#C2CFE0"/>
<path d="M9.66309 11.8555V11.5127C9.66309 11.0176 9.73926 10.6113 9.8916 10.2939C10.0439 9.97233 10.3275 9.63379 10.7422 9.27832C11.3177 8.79167 11.6795 8.42562 11.8276 8.18018C11.98 7.93473 12.0562 7.63851 12.0562 7.2915C12.0562 6.85986 11.9165 6.52767 11.6372 6.29492C11.3621 6.05794 10.9644 5.93945 10.4438 5.93945C10.1095 5.93945 9.78369 5.97965 9.46631 6.06006C9.14893 6.13623 8.78499 6.27799 8.37451 6.48535L8 5.62842C8.7998 5.20947 9.63558 5 10.5073 5C11.3156 5 11.944 5.19889 12.3926 5.59668C12.8411 5.99447 13.0654 6.55518 13.0654 7.27881C13.0654 7.58773 13.0231 7.86068 12.9385 8.09766C12.8581 8.3304 12.7375 8.55257 12.5767 8.76416C12.4159 8.97152 12.0688 9.30794 11.5356 9.77344C11.1082 10.1374 10.8247 10.4399 10.6851 10.6812C10.5496 10.9224 10.4819 11.244 10.4819 11.646V11.8555H9.66309ZM9.35205 13.7407C9.35205 13.1652 9.60596 12.8774 10.1138 12.8774C10.3592 12.8774 10.5475 12.9515 10.6787 13.0996C10.8141 13.2477 10.8818 13.4614 10.8818 13.7407C10.8818 14.0116 10.8141 14.2231 10.6787 14.3755C10.5433 14.5236 10.355 14.5977 10.1138 14.5977C9.89372 14.5977 9.71175 14.5321 9.56787 14.4009C9.42399 14.2655 9.35205 14.0454 9.35205 13.7407Z" fill="#C2CFE0"/>
</svg>
