<svg width="18" height="10" viewBox="0 0 18 10" fill="none" xmlns="http://www.w3.org/2000/svg">
<path d="M2.2474 4.99967C2.2474 3.57467 3.40573 2.41634 4.83073 2.41634H8.16406V0.833008H4.83073C2.53073 0.833008 0.664062 2.69967 0.664062 4.99967C0.664062 7.29967 2.53073 9.16634 4.83073 9.16634H8.16406V7.58301H4.83073C3.40573 7.58301 2.2474 6.42467 2.2474 4.99967ZM5.66406 5.83301H12.3307V4.16634H5.66406V5.83301ZM13.1641 0.833008H9.83073V2.41634H13.1641C14.5891 2.41634 15.7474 3.57467 15.7474 4.99967C15.7474 6.42467 14.5891 7.58301 13.1641 7.58301H9.83073V9.16634H13.1641C15.4641 9.16634 17.3307 7.29967 17.3307 4.99967C17.3307 2.69967 15.4641 0.833008 13.1641 0.833008Z" fill="#334D6E"/>
</svg>
