<svg width="109" height="16" viewBox="0 0 109 16" fill="none" xmlns="http://www.w3.org/2000/svg">
<path d="M10.5926 7.41622C11.5517 6.8973 12.1484 5.75135 12.1484 4.36757C12.1484 3.2 11.7222 2.22703 10.8483 1.44865C9.9745 0.670271 8.73834 0.281081 7.13987 0.281081H0V15.7189H7.33168C10.8057 15.7189 12.5747 13.9459 12.5747 11.2432C12.5747 9.77297 11.7009 8.47568 10.5926 7.97838V7.41622ZM3.17564 6.4V2.96216H6.73492C8.16289 2.96216 8.88753 3.52433 8.88753 4.67027C8.88753 5.81622 8.1842 6.4 6.75623 6.4H3.17564ZM3.17564 12.973V9.1027H6.90542C8.5039 9.1027 9.3138 9.75135 9.3138 11.0703C9.3138 12.3459 8.5039 12.973 6.8628 12.973H3.17564Z" fill="black"/>
<path d="M16.6376 2.24865C15.3376 3.74054 14.6982 5.64324 14.6982 8C14.6982 10.3568 15.3376 12.2811 16.6376 13.773C17.9377 15.2649 19.7707 16 22.1151 16C24.4595 16 26.2711 15.2649 27.5712 13.773C28.8713 12.2811 29.532 10.3568 29.532 8C29.532 5.64324 28.8713 3.74054 27.5712 2.24865C26.2711 0.756757 24.4595 0 22.1151 0C19.7707 0 17.9377 0.756757 16.6376 2.24865ZM19.0034 11.6973C18.3001 10.7459 17.9591 9.51352 17.9591 8C17.9591 6.48649 18.3001 5.25405 19.0034 4.3027C19.7067 3.35135 20.7511 2.87568 22.1151 2.87568C23.4791 2.87568 24.5022 3.35135 25.2055 4.3027C25.9088 5.25405 26.2711 6.48649 26.2711 8C26.2711 9.51352 25.9088 10.7459 25.2055 11.6973C24.5022 12.6486 23.4791 13.1243 22.1151 13.1243C20.7511 13.1243 19.7067 12.6486 19.0034 11.6973Z" fill="black"/>
<path d="M45.309 15.7189L40.4496 0.281081H35.5263L30.6883 15.7189H33.8213L35.0574 11.5459H40.8546L42.0907 15.7189H45.309ZM38.4036 3.37297L40.0021 8.73514H35.8673L37.4658 3.37297H38.4036Z" fill="black"/>
<path d="M47.4548 0.281081V15.7189H50.6304V9.9027H54.7439L56.7899 15.7189H59.9869L57.7064 9.21081C59.2196 8.41081 59.9655 7.02703 59.9655 5.08108C59.9655 2.07568 57.9621 0.281081 54.616 0.281081H47.4548ZM53.8487 3.11351C55.9161 3.11351 56.726 3.67568 56.726 5.12433C56.726 6.48649 55.8734 7.15676 54.1684 7.15676H50.6304V3.11351H53.8487Z" fill="black"/>
<path d="M62.9192 0.281081V15.7189H69.2705C71.551 15.7189 73.2987 15.027 74.5135 13.6432C75.7284 12.2595 76.3251 10.3784 76.3251 8C76.3251 5.62162 75.7284 3.74054 74.5135 2.35676C73.2987 0.972973 71.551 0.281081 69.2705 0.281081H62.9192ZM66.0949 12.8432V3.15676H68.8656C71.7641 3.15676 73.0642 5.08108 73.0642 8C73.0642 10.8757 71.7641 12.8432 68.8656 12.8432H66.0949Z" fill="black"/>
<path d="M86.7937 5.14612C86.9216 3.74071 87.6888 3.04882 89.0955 3.04882C90.4382 3.04882 91.2694 3.80557 91.2694 5.21098C91.2694 6.5299 90.3743 7.48125 88.861 8.60557L83.7459 12.4758V15.7191H94.7648V13.0164H88.4561V12.4542L91.5891 9.98936C93.4433 8.54071 94.3598 6.91909 94.3598 5.14612C94.3598 3.61098 93.8909 2.42179 92.9318 1.57855C91.9728 0.713683 90.7366 0.28125 89.1807 0.28125C85.9412 0.28125 83.8738 2.0326 83.7246 5.14612H86.7937Z" fill="#098EDF"/>
<path d="M106.453 0.583953H102.915L96.3935 9.21098V12.4758H103.491V15.7191H106.453V12.4758H108.308V9.77314H106.453V0.583953ZM99.2708 9.21098L103.043 4.08666H103.597V9.77314H99.2708V9.21098Z" fill="#098EDF"/>
</svg>
